<svg id="Слой_1" data-name="Слой 1" xmlns="http://www.w3.org/2000/svg" viewBox="0 0 484.63 431.11">
  <defs>
    <style>
      .cls-1 {
        fill: #0d0e0f;
        stroke: #000;
        stroke-miterlimit: 10;
      }
    </style>
  </defs>
  <title>md_logo</title>
  <path class="cls-1" d="M241.27,159,393.57,6.2s174.3,134.9,40.7,331.3c0,0-66,92-186.5,98.6,0,0-122.2,2.4-192.2-87.2l117.3-117.3,31,31-80.7,81.3,15.5,14.7s52.9,35.8,113.2,28.5c0,0,105.9,5.7,175.1-129.5,0,0,30.1-117.3-33.4-181.6L240.47,229.1,89.77,74.3s-70.9,85.5-26.9,190.6l-38.3,36.7S-46.33,152.5,58,36.1L89,6.2Z" transform="translate(-0.53 -5.5)"/>
</svg>
